<svg xmlns="http://www.w3.org/2000/svg" version="1.1" xmlns:xlink="http://www.w3.org/1999/xlink" xmlns:svgjs="http://svgjs.dev/svgjs" width="1500" height="1687" viewBox="0 0 1500 1687"><g transform="matrix(1,0,0,1,2.2737367544323206e-13,0)"><svg viewBox="0 0 320 360" data-background-color="#ffffff" preserveAspectRatio="xMidYMid meet" height="1687" width="1500" xmlns="http://www.w3.org/2000/svg" xmlns:xlink="http://www.w3.org/1999/xlink"><g id="tight-bounds" transform="matrix(1,0,0,1,0,0)"><svg viewBox="0 0 320 360" height="360" width="320"><g><svg></svg></g><g><svg viewBox="0 0 320 360" height="360" width="320"><g><path d="M20.961 227.22l3.726 4.658-1.863-6.056c-0.466-2.795-3.726 0.466-1.863 1.398M25.153 224.425c1.397 2.329 2.795 4.658 2.795 6.987 0 3.261 2.795 4.658 5.123 5.589-3.261-3.726-5.124-13.974-7.918-12.576M204.017 26.929c7.918 0 15.371-0.932 23.756 0.931 20.495 5.124 37.729 15.371 49.374 29.811l32.606 52.169c1.397 13.042 4.192 27.482 3.726 43.319 3.261 0 2.795-4.658 6.521-5.59-3.726 9.316-5.59 20.961-6.521 34.469-2.329-7.453 0-18.632 0.466-24.687-3.261 5.124-5.124 1.397-5.124-0.932 0.466-3.726-1.397-3.261-2.795-4.658-5.124-4.658-8.384-9.782-12.11-17.7 2.329-6.055 2.795-14.905-4.658-19.563-2.329-1.397-5.124-3.726-6.521-7.453-1.863-5.124-5.124-11.179-4.193-19.097 0.466-2.329-6.987 5.124-11.179 1.863-18.166-12.576-36.332-27.016-58.224-39.127-11.645 0-20.029-4.192-24.221-9.316-3.726-4.658-0.932-10.713 4.658-11.179 3.261 0 6.987-0.932 9.782 0.932 0.466-1.863 2.329-4.192 4.657-4.192M157.904 16.215l0.932 0.466c4.658 0.932 6.987 7.453 12.11 5.124 0 3.261 0.466 6.521-0.466 8.85-1.397 3.726-5.59 3.726-8.85 3.726-31.208-1.863-49.374 11.179-68.471 22.358-5.124 3.261-10.713 5.59-14.906 9.782-20.029 18.632-41.921 35.866-47.045 70.335l-4.192 38.195c-0.466 4.192-5.124 8.384-4.192 13.508l3.26 22.824c-3.261-3.261-5.124 0.932-4.192 2.795 0.466 1.397 2.329 6.055 5.124 1.863 3.726 6.987 7.453 20.495 12.576 26.55 15.837 18.632 36.332 35.4 53.101 52.169 4.192-0.932 7.453-0.932 8.384-3.727 1.397 2.795-1.397 5.59-3.726 6.056 7.453 4.658 15.837 8.85 27.016 9.781 14.44 0.932 27.948 3.261 40.524 6.522 6.521-1.863 13.042-2.795 20.029-3.261 2.329 0 3.726-3.726 6.521-4.658l0.466-4.658c2.795 4.192 2.329-1.397 0.466-4.192 3.261 2.795 4.192 5.124 5.589 6.987 0-1.397 3.726-6.521 3.727-0.466l0.931-6.055c1.397-0.932 1.863 5.124 3.261 0.931 1.397-4.192 4.192-0.932 6.987-2.329-0.932 1.863-0.466 5.59 2.794 3.261l3.727-3.261c2.329 5.59 6.055 3.261 7.918 2.329 20.495-13.042 40.99-28.413 60.553-43.784l-0.466 6.055 2.329-7.453c2.329 2.329 4.192 0.466 5.124-0.931 2.795-4.658 6.521-9.316 12.577-13.508-7.453 20.029-16.303 35.866-27.482 48.908l-4.658 5.59c0 3.261-0.932 7.453-4.658 7.918-1.863 0.466-5.59-0.932-8.384 1.863-1.397 1.863 3.261 5.59-0.466 2.795-3.261-2.329-6.521 0-10.248 0.932-2.795 0.932 1.863 3.726 2.795 5.589 0.932 1.863 1.863 3.726 1.398 6.056l-5.124-5.59c-6.055 3.261-9.782 9.316-14.906 13.974-2.329 1.863-1.397 5.124-1.397 7.918-3.261 0-6.987-0.932-8.85 0.932-1.397 1.863-0.932 4.658-0.932 7.453-4.658-0.466-5.124-7.453-9.315-6.056-4.192 0.932-8.85 1.397-12.577 3.727 2.795 5.59-4.658 2.329-3.726 3.26-6.987-4.192-13.042-7.453-20.495-4.658-15.837-5.124-35.4-2.795-49.84-0.931 0-2.329 0.466-4.658-0.466-5.124-0.932 2.329-3.726 1.397-3.26 1.397-8.85-6.055-17.7-9.782-27.016-14.905-8.384 0.932-16.303-3.261-18.632-5.59-6.521-6.055-13.974-2.795-20.029-4.192-13.042-3.261-17.7-16.769-19.098-26.084-0.932-4.658-4.658-6.521-6.055-6.056-6.055-19.563-15.371-37.263-22.824-55.429-1.863-4.658-1.397-9.316-1.397-14.44 2.329 0.932 4.658 0.466 4.192-2.794-2.329-15.371-7.918-27.016-13.974-38.195 3.261-15.837 3.726-34.469 11.179-48.443 6.521-12.576 18.632-19.098 27.016-29.811 2.795-3.726 2.795-8.85 5.59-12.11 9.316-9.316 18.632-19.098 28.879-27.482 4.658-3.726 10.247 0 17.234-1.397 2.329-8.384 11.645-15.837 20.495-13.508 3.726 0.932 11.179-8.85 13.508-9.782 3.726-1.397 1.863 3.726 1.863 6.987 8.85-6.987 20.961-10.713 32.14-14.906" fill="#0097fc" fill-rule="nonzero" stroke="none" stroke-width="1" stroke-linecap="butt" stroke-linejoin="miter" stroke-miterlimit="10" stroke-dasharray="" stroke-dashoffset="0" font-family="none" font-weight="none" font-size="none" text-anchor="none" style="mix-blend-mode: normal" data-fill-palette-color="tertiary"></path></g><g transform="matrix(1,0,0,1,64,115.2846249218401)"><svg viewBox="0 0 192 129.4307501563198" height="129.4307501563198" width="192"><g><svg viewBox="0 0 192 129.4307501563198" height="129.4307501563198" width="192"><g><svg viewBox="0 0 192 129.4307501563198" height="129.4307501563198" width="192"><g><svg viewBox="0 0 192 129.4307501563198" height="129.4307501563198" width="192"><g id="textblocktransform"><svg viewBox="0 0 192 129.4307501563198" height="129.4307501563198" width="192" id="textblock"><g><svg viewBox="0 0 192 57.882983474765524" height="57.882983474765524" width="192"><g transform="matrix(1,0,0,1,0,0)"><svg width="192" viewBox="3 -33 111.94 33.75" height="57.882983474765524" data-palette-color="#0192f3"><path d="M25.9-15.05L25.9-10.2 18.55-10.2 18.55-14.65Q18.55-16.95 17.35-17.93 16.15-18.9 14.35-18.9L14.35-18.9Q12.75-18.9 11.48-18.3 10.2-17.7 9.25-16.95L9.25-16.95 9.1-22.9Q10.25-23.6 11.95-24.18 13.65-24.75 15.7-24.75L15.7-24.75Q20.4-24.75 23.15-22.33 25.9-19.9 25.9-15.05L25.9-15.05ZM3-3.1L3-13.2 10.35-13.2 10.35-0.05Q9.9 0.05 9 0.2 8.1 0.35 7.05 0.35L7.05 0.35Q4.95 0.35 3.98-0.4 3-1.15 3-3.1L3-3.1ZM18.55-3.1L18.55-13.2 25.9-13.2 25.9-0.05Q25.45 0.05 24.55 0.2 23.65 0.35 22.6 0.35L22.6 0.35Q20.5 0.35 19.53-0.4 18.55-1.15 18.55-3.1L18.55-3.1ZM10.35-29.55L10.35-9.4 3-9.4 3-32.55Q3.45-32.7 4.35-32.85 5.25-33 6.3-33L6.3-33Q8.45-33 9.4-32.27 10.35-31.55 10.35-29.55L10.35-29.55ZM55.95-12L55.95-12Q55.95-8.1 54.4-5.23 52.85-2.35 50-0.8 47.15 0.75 43.3 0.75L43.3 0.75Q39.45 0.75 36.6-0.78 33.75-2.3 32.2-5.18 30.65-8.05 30.65-12L30.65-12Q30.65-15.9 32.22-18.75 33.8-21.6 36.67-23.18 39.55-24.75 43.3-24.75L43.3-24.75Q47.1-24.75 49.95-23.18 52.8-21.6 54.37-18.73 55.95-15.85 55.95-12ZM43.3-18.9L43.3-18.9Q40.95-18.9 39.57-17.1 38.2-15.3 38.2-12L38.2-12Q38.2-8.65 39.55-6.85 40.9-5.05 43.3-5.05L43.3-5.05Q45.75-5.05 47.07-6.88 48.4-8.7 48.4-12L48.4-12Q48.4-15.25 47.05-17.07 45.7-18.9 43.3-18.9ZM60.75-7.35L60.75-13.2 68.05-13.2 68.05-7.85Q68.05-6.4 68.95-5.78 69.84-5.15 71.45-5.15L71.45-5.15Q72.25-5.15 73.09-5.3 73.95-5.45 74.59-5.7L74.59-5.7Q75-5.25 75.3-4.63 75.59-4 75.59-3.15L75.59-3.15Q75.59-1.45 74.22-0.38 72.84 0.7 69.55 0.7L69.55 0.7Q65.4 0.7 63.07-1.18 60.75-3.05 60.75-7.35L60.75-7.35ZM73.25-17.75L65.34-17.75 65.34-23.45 75-23.45Q75.25-23.05 75.5-22.3 75.75-21.55 75.75-20.65L75.75-20.65Q75.75-19.15 75.07-18.45 74.4-17.75 73.25-17.75L73.25-17.75ZM68.05-26.95L68.05-11.95 60.75-11.95 60.75-29.9Q61.2-30.05 62.1-30.23 63-30.4 64-30.4L64-30.4Q66.09-30.4 67.07-29.65 68.05-28.9 68.05-26.95L68.05-26.95ZM99.54-10.85L83.64-8.5 83.34-13.5 95.79-15.45Q95.64-16.9 94.54-18.07 93.44-19.25 91.29-19.25L91.29-19.25Q88.99-19.25 87.49-17.73 85.99-16.2 85.94-13.35L85.94-13.35 86.14-9.95Q86.64-7.2 88.54-6.03 90.44-4.85 93.04-4.85L93.04-4.85Q95.14-4.85 96.99-5.43 98.84-6 99.99-6.7L99.99-6.7Q100.69-6.25 101.19-5.45 101.69-4.65 101.69-3.75L101.69-3.75Q101.69-2.25 100.52-1.25 99.34-0.25 97.27 0.25 95.19 0.75 92.54 0.75L92.54 0.75Q88.69 0.75 85.64-0.7 82.59-2.15 80.84-5.05 79.09-7.95 79.09-12.3L79.09-12.3Q79.09-15.5 80.09-17.85 81.09-20.2 82.82-21.73 84.54-23.25 86.72-24 88.89-24.75 91.24-24.75L91.24-24.75Q94.69-24.75 97.27-23.38 99.84-22 101.29-19.65 102.74-17.3 102.74-14.2L102.74-14.2Q102.74-12.65 101.89-11.88 101.04-11.1 99.54-10.85L99.54-10.85ZM107.59-3.1L107.59-13.2 114.94-13.05 114.94-0.05Q114.49 0.05 113.59 0.2 112.69 0.35 111.64 0.35L111.64 0.35Q109.54 0.35 108.57-0.4 107.59-1.15 107.59-3.1L107.59-3.1ZM114.94-29.55L114.94-9.25 107.59-9.4 107.59-32.55Q108.04-32.7 108.94-32.85 109.84-33 110.89-33L110.89-33Q113.04-33 113.99-32.27 114.94-31.55 114.94-29.55L114.94-29.55Z" opacity="1" transform="matrix(1,0,0,1,0,0)" fill="#0192f3" class="wordmark-text-0" data-fill-palette-color="primary" id="text-0"></path></svg></g></svg></g><g transform="matrix(1,0,0,1,0,71.54776668155426)"><svg viewBox="0 0 192 57.882983474765524" height="57.882983474765524" width="192"><g transform="matrix(1,0,0,1,0,0)"><svg width="192" viewBox="0.98 -35.57 117.99 35.57" height="57.882983474765524" data-palette-color="#0192f3"><path d="M26.76-14.92L26.76-14.92 30.47-5.83 33.84-4.98 33.84 0 23.49 0 19.07-12.82 13.23-12.89 13.23-5.79 16.92-5 16.92 0 0.98 0 0.98-5 4.66-5.79 4.66-29.74 0.98-30.52 0.98-35.57 18.46-35.57Q22.71-35.57 25.78-34.23L25.78-34.23Q28.88-32.89 30.57-30.41 32.25-27.93 32.25-24.54L32.25-24.54Q32.25-21.41 30.57-18.73L30.57-18.73Q29.83-17.6 28.88-16.63 27.93-15.65 26.76-14.92ZM18.46-29L13.23-29 13.23-19.46 18.55-19.46Q21.04-19.46 22.39-20.62 23.73-21.78 23.73-23.97L23.73-23.97Q23.73-26.25 22.36-27.62 21-29 18.46-29L18.46-29ZM67.98-10.45L74.38-10.45 74.38 0 45.59 0 45.59-5 49.28-5.79 49.28-29.74 45.59-30.52 45.59-35.55 73.99-35.55 73.99-25.29 67.52-25.29 67.32-28.96 57.85-28.96 57.85-21.66 69.2-21.66 69.2-15.09 57.85-15.09 57.85-6.62 67.78-6.62 67.98-10.45ZM105.34 0L105.34 0 87.45 0 87.45-5 91.14-5.79 91.14-29.74 87.45-30.52 87.45-35.55 103.54-35.55Q110.25-35.55 114.01-33.08 117.77-30.62 117.77-25.73L117.77-25.73Q117.77-23.22 116.58-21.23 115.38-19.24 112.89-18.21L112.89-18.21Q115.01-17.72 116.36-16.65L116.36-16.65Q117.7-15.53 118.33-13.95 118.97-12.38 118.97-10.55L118.97-10.55Q118.97-5.32 115.48-2.66 111.99 0 105.34 0ZM103.54-29L103.54-29 99.71-29 99.71-20.8 103.17-20.8Q109.2-20.8 109.2-24.76L109.2-24.76Q109.2-26.98 107.8-27.99 106.39-29 103.54-29ZM105.76-15.14L105.76-15.14 99.71-15.14 99.71-6.52 105.34-6.52Q110.45-6.52 110.45-10.57L110.45-10.57Q110.45-12.08 109.96-13.13L109.96-13.13Q108.98-15.14 105.76-15.14Z" opacity="1" transform="matrix(1,0,0,1,0,0)" fill="#0192f3" class="slogan-text-1" data-fill-palette-color="secondary" id="text-1"></path></svg></g></svg></g></svg></g></svg></g><g></g></svg></g></svg></g></svg></g></svg></g><defs></defs></svg><rect width="320" height="360" fill="none" stroke="none" visibility="hidden"></rect></g></svg></g></svg>